ffmpeg version 3.4.8-0ubuntu0.2 Copyright (c) 2000-2020 the FFmpeg developers
  built with gcc 7 (Ubuntu 7.5.0-3ubuntu1~18.04)
  configuration: --prefix=/usr --extra-version=0ubuntu0.2 --toolchain=hardened --libdir=/usr/lib/x86_64-linux-gnu --incdir=/usr/include/x86_64-linux-gnu --enable-gpl --disable-stripping --enable-avresample --enable-avisynth --enable-gnutls --enable-ladspa --enable-libass --enable-libbluray --enable-libbs2b --enable-libcaca --enable-libcdio --enable-libflite --enable-libfontconfig --enable-libfreetype --enable-libfribidi --enable-libgme --enable-libgsm --enable-libmp3lame --enable-libmysofa --enable-libopenjpeg --enable-libopenmpt --enable-libopus --enable-libpulse --enable-librubberband --enable-librsvg --enable-libshine --enable-libsnappy --enable-libsoxr --enable-libspeex --enable-libssh --enable-libtheora --enable-libtwolame --enable-libvorbis --enable-libvpx --enable-libwavpack --enable-libwebp --enable-libx265 --enable-libxml2 --enable-libxvid --enable-libzmq --enable-libzvbi --enable-omx --enable-openal --enable-opengl --enable-sdl2 --enable-libdc1394 --enable-libdrm --enable-libiec61883 --enable-chromaprint --enable-frei0r --enable-libopencv --enable-libx264 --enable-shared
  libavutil      55. 78.100 / 55. 78.100
  libavcodec     57.107.100 / 57.107.100
  libavformat    57. 83.100 / 57. 83.100
  libavdevice    57. 10.100 / 57. 10.100
  libavfilter     6.107.100 /  6.107.100
  libavresample   3.  7.  0 /  3.  7.  0
  libswscale      4.  8.100 /  4.  8.100
  libswresample   2.  9.100 /  2.  9.100
  libpostproc    54.  7.100 / 54.  7.100
[rawvideo @ 0x5581c5340a20] Estimating duration from bitrate, this may be inaccurate
Input #0, rawvideo, from '../../SVC-Encoder-20220109T061506Z-001/SVC-Encoder/Dataset/RollerCoaster/ERP_8x8/tile_yuv/Tile_41_480x240.yuv':
  Duration: 00:00:10.00, start: 0.000000, bitrate: 41472 kb/s
    Stream #0:0: Video: rawvideo (I420 / 0x30323449), yuv420p, 480x240, 41472 kb/s, 30 tbr, 30 tbn, 30 tbc
Stream mapping:
  Stream #0:0 -> #0:0 (rawvideo (native) -> h264 (libx264))
Press [q] to stop, [?] for help
[libx264 @ 0x5581c534dc60] using cpu capabilities: MMX2 SSE2Fast LZCNT SSSE3 SSE4.2 AVX
[libx264 @ 0x5581c534dc60] profile High, level 2.1
Output #0, rawvideo, to 'RollerCoaster_Tile_41_480x240_x264_QP_28.h264':
  Metadata:
    encoder         : Lavf57.83.100
    Stream #0:0: Video: h264 (libx264), yuv420p, 480x240, q=-1--1, 30 fps, 30 tbn, 30 tbc
    Metadata:
      encoder         : Lavc57.107.100 libx264
    Side data:
      cpb: bitrate max/min/avg: 0/0/0 buffer size: 0 vbv_delay: -1
frame=  161 fps=0.0 q=34.0 PSNR=Y:nan U:nan V:nan *:nan size=      84kB time=00:00:03.93 bitrate= 175.0kbits/s speed=7.85x    frame=  300 fps=285 q=34.0 LPSNR=Y:inf U:inf V:inf *:inf size=     210kB time=00:00:09.93 bitrate= 173.0kbits/s speed=9.45x    
video:210kB audio:0kB subtitle:0kB other streams:0kB global headers:0kB muxing overhead: 0.000000%
[libx264 @ 0x5581c534dc60] frame I:2     Avg QP:26.46  size: 10624  PSNR Mean Y:41.21 U:46.25 V:46.18 Avg:42.34 Global:42.34
[libx264 @ 0x5581c534dc60] frame P:77    Avg QP:28.08  size:  1981  PSNR Mean Y:38.66 U:46.09 V:45.55 Avg:40.02 Global:39.97
[libx264 @ 0x5581c534dc60] frame B:221   Avg QP:33.43  size:   186  PSNR Mean Y:38.51 U:46.02 V:45.52 Avg:39.88 Global:39.85
[libx264 @ 0x5581c534dc60] consecutive B-frames:  1.0%  2.0%  1.0% 96.0%
[libx264 @ 0x5581c534dc60] mb I  I16..4: 11.1% 75.8% 13.1%
[libx264 @ 0x5581c534dc60] mb P  I16..4:  0.4%  0.2%  0.0%  P16..4: 45.8% 16.5%  8.7%  0.0%  0.0%    skip:28.4%
[libx264 @ 0x5581c534dc60] mb B  I16..4:  0.0%  0.0%  0.0%  B16..8: 28.6%  1.0%  0.0%  direct: 0.0%  skip:70.3%  L0:31.0% L1:64.8% BI: 4.3%
[libx264 @ 0x5581c534dc60] 8x8 transform intra:68.8% inter:65.2%
[libx264 @ 0x5581c534dc60] coded y,uvDC,uvAC intra: 64.5% 76.0% 27.1% inter: 6.9% 5.5% 0.0%
[libx264 @ 0x5581c534dc60] i16 v,h,dc,p: 18% 32% 31% 19%
[libx264 @ 0x5581c534dc60] i8 v,h,dc,ddl,ddr,vr,hd,vl,hu:  6% 19% 20% 12% 10%  6% 12%  7%  7%
[libx264 @ 0x5581c534dc60] i4 v,h,dc,ddl,ddr,vr,hd,vl,hu:  9% 19% 14% 16%  9%  6% 11% 10%  6%
[libx264 @ 0x5581c534dc60] i8c dc,h,v,p: 44% 30% 10% 16%
[libx264 @ 0x5581c534dc60] Weighted P-Frames: Y:0.0% UV:0.0%
[libx264 @ 0x5581c534dc60] ref P L0: 67.4% 19.8% 11.5%  1.4%
[libx264 @ 0x5581c534dc60] ref B L0: 94.8%  4.6%  0.6%
[libx264 @ 0x5581c534dc60] ref B L1: 97.1%  2.9%
[libx264 @ 0x5581c534dc60] PSNR Mean Y:38.568 U:46.037 V:45.532 Avg:39.933 Global:39.890 kb/s:171.87
